<svg width="31" height="31" viewBox="0 0 31 31" fill="none" xmlns="http://www.w3.org/2000/svg">
<path d="M15.0287 18.0287L12.0287 15.0287L15.0287 12.0287L18.0287 15.0287L15.0287 18.0287V18.0287M11.8412 9.47587L8.69705 6.33169L15.0287 0L21.3604 6.33169L18.2162 9.47587L15.0287 6.28837L11.8412 9.47587V9.47587M6.33169 21.3604L0 15.0287L6.33169 8.69705L9.47587 11.8412L6.28837 15.0287L9.47587 18.2162L6.33169 21.3604V21.3604M23.7258 21.3604L20.5816 18.2162L23.7691 15.0287L20.5816 11.8412L23.7258 8.69705L30.0575 15.0287L23.7258 21.3604V21.3604M15.0287 30.0575L8.69705 23.7258L11.8412 20.5816L15.0287 23.7691L18.2162 20.5816L21.3604 23.7258L15.0287 30.0575V30.0575" fill="#436651"/>
</svg>
