<svg width="26" height="26" viewBox="0 0 26 26" fill="none" xmlns="http://www.w3.org/2000/svg">
<path d="M9.46149 25.8172C8.26342 25.8172 7.23314 25.4023 6.37064 24.5725C5.50814 23.7427 5.03363 22.7365 4.94709 21.5538C3.5721 21.3442 2.42788 20.7153 1.51442 19.6672C0.600969 18.6192 0.144241 17.3903 0.144241 15.9807C0.144241 15.4885 0.208183 15.0022 0.336067 14.5218C0.463951 14.0413 0.655777 13.5901 0.911545 13.1682C0.607697 12.7279 0.37981 12.2515 0.227886 11.7391C0.0759621 11.2266 0 10.6886 0 10.125C0 8.686 0.473556 7.44165 1.42067 6.39191C2.36778 5.34217 3.54037 4.73173 4.93844 4.56058C4.92883 4.52211 4.92402 4.48365 4.92402 4.44518C4.92402 4.40672 4.92402 4.36345 4.92402 4.31537C4.97017 3.10768 5.43218 2.08653 6.31006 1.25192C7.18794 0.417306 8.23842 0 9.46149 0C10.15 0 10.7634 0.134616 11.3019 0.403848C11.8403 0.67308 12.3519 1.05385 12.8365 1.54617C13.3153 1.05385 13.823 0.67308 14.3596 0.403848C14.8961 0.134616 15.5134 0 16.2115 0C17.4209 0 18.4618 0.415864 19.3339 1.24759C20.2061 2.07932 20.6653 3.09422 20.7115 4.29229C20.7115 4.34037 20.7115 4.38364 20.7115 4.42211C20.7115 4.46057 20.7067 4.49904 20.697 4.5375C22.0951 4.70865 23.274 5.32067 24.2336 6.37355C25.1932 7.42643 25.673 8.6769 25.673 10.125C25.673 10.6886 25.5946 11.2266 25.4379 11.7391C25.2811 12.2515 25.0509 12.7279 24.747 13.1682C25.0028 13.5894 25.197 14.0403 25.3297 14.521C25.4624 15.0017 25.5287 15.4883 25.5287 15.9807C25.5287 17.4153 25.0682 18.6528 24.147 19.6932C23.2259 20.7336 22.073 21.3538 20.6884 21.5538C20.6019 22.7365 20.1336 23.7427 19.2836 24.5725C18.4336 25.4023 17.4096 25.8172 16.2115 25.8172C15.5192 25.8172 14.9033 25.6865 14.3639 25.4249C13.8245 25.1634 13.3153 24.7816 12.8365 24.2797C12.3423 24.7816 11.8269 25.1634 11.2903 25.4249C10.7538 25.6865 10.1442 25.8172 9.46149 25.8172ZM13.9615 4.49997V21.3172C13.9615 21.9473 14.1796 22.4798 14.6158 22.9148C15.052 23.3498 15.5859 23.5673 16.2177 23.5673C16.8193 23.5673 17.3351 23.3432 17.7649 22.8952C18.1947 22.4471 18.4269 21.925 18.4615 21.3288C17.8307 21.1961 17.2485 20.9562 16.7149 20.6091C16.1812 20.262 15.7201 19.8173 15.3317 19.2749C15.1394 19.0115 15.0669 18.731 15.1142 18.4336C15.1615 18.1362 15.3177 17.8945 15.5826 17.7086C15.8461 17.5163 16.1284 17.4438 16.4294 17.4912C16.7305 17.5385 16.9752 17.6946 17.1634 17.9596C17.4736 18.4109 17.8685 18.7564 18.348 18.9961C18.8275 19.2359 19.3461 19.3558 19.9038 19.3558C20.8442 19.3558 21.6418 19.0284 22.2966 18.3735C22.9514 17.7187 23.2788 16.9211 23.2788 15.9807C23.2788 15.7916 23.2605 15.6025 23.224 15.4134C23.1874 15.2243 23.1297 15.0384 23.0509 14.8557C22.6259 15.1442 22.1571 15.3653 21.6446 15.5192C21.1321 15.673 20.5999 15.7499 20.048 15.7499C19.7293 15.7499 19.4621 15.6421 19.2465 15.4264C19.0308 15.2107 18.923 14.9434 18.923 14.6245C18.923 14.3056 19.0308 14.0384 19.2465 13.8231C19.4621 13.6077 19.7293 13.5 20.048 13.5C20.9884 13.5 21.786 13.1726 22.4408 12.5178C23.0956 11.863 23.423 11.0654 23.423 10.125C23.423 9.19955 23.1004 8.41435 22.4552 7.76935C21.81 7.12436 21.0269 6.78456 20.1057 6.74995C19.8499 7.20956 19.5129 7.61052 19.0947 7.95283C18.6764 8.29514 18.2096 8.56629 17.6942 8.76629C17.3999 8.87783 17.1127 8.86853 16.8325 8.73841C16.5523 8.60829 16.3655 8.39451 16.2721 8.09708C16.1759 7.80286 16.1875 7.51392 16.3067 7.23027C16.4259 6.94663 16.6375 6.75673 16.9413 6.66058C17.3932 6.50673 17.7596 6.23387 18.0404 5.84201C18.3211 5.45014 18.4615 4.99799 18.4615 4.48555C18.4615 3.85958 18.2439 3.33049 17.8088 2.89827C17.3736 2.46605 16.8409 2.24995 16.2107 2.24995C15.5804 2.24995 15.048 2.46745 14.6134 2.90245C14.1788 3.33746 13.9615 3.86996 13.9615 4.49997ZM11.7115 21.3172V4.49997C11.7115 3.86996 11.4939 3.33746 11.0588 2.90245C10.6236 2.46745 10.0909 2.24995 9.46068 2.24995C8.83044 2.24995 8.29801 2.46745 7.86339 2.90245C7.42877 3.33746 7.21146 3.86996 7.21146 4.49997C7.21146 4.98652 7.348 5.42979 7.62108 5.8298C7.89416 6.2298 8.25667 6.50673 8.7086 6.66058C9.00282 6.75673 9.2182 6.94422 9.35473 7.22306C9.49127 7.5019 9.51228 7.78948 9.41777 8.08579C9.30436 8.3821 9.10589 8.59508 8.82236 8.72472C8.53883 8.85435 8.24515 8.8634 7.94131 8.75187C7.42592 8.55187 6.9591 8.28312 6.54083 7.94562C6.12256 7.60812 5.78554 7.20956 5.52978 6.74995C4.63362 6.78456 3.86294 7.12928 3.21774 7.78409C2.57254 8.4389 2.24995 9.22075 2.24995 10.1296C2.24995 11.0669 2.57735 11.863 3.23216 12.5178C3.88698 13.1726 4.68458 13.5 5.62497 13.5C5.94371 13.5 6.2109 13.6079 6.42652 13.8236C6.64214 14.0393 6.74995 14.3066 6.74995 14.6255C6.74995 14.9444 6.64214 15.2115 6.42652 15.4269C6.2109 15.6423 5.94371 15.7499 5.62497 15.7499C5.07305 15.7499 4.54083 15.673 4.02833 15.5192C3.51583 15.3653 3.04708 15.1442 2.62208 14.8557C2.54323 15.0384 2.48554 15.2243 2.449 15.4134C2.41246 15.6025 2.39419 15.7916 2.39419 15.9807C2.39419 16.9211 2.72159 17.7187 3.37641 18.3735C4.03122 19.0284 4.82882 19.3558 5.76921 19.3558C6.32976 19.3558 6.84826 19.2351 7.32473 18.9937C7.80119 18.7524 8.19616 18.4077 8.50962 17.9596C8.6978 17.6946 8.94244 17.5385 9.24353 17.4912C9.54462 17.4438 9.82733 17.5137 10.0917 17.7009C10.356 17.888 10.5118 18.1313 10.559 18.4307C10.6062 18.7301 10.5336 19.0115 10.3413 19.2749C9.94323 19.8173 9.47351 20.2658 8.93216 20.6206C8.3908 20.9754 7.80474 21.2192 7.17396 21.3519C7.20858 21.948 7.44704 22.4663 7.88936 22.9067C8.33167 23.3471 8.85365 23.5673 9.45531 23.5673C10.087 23.5673 10.621 23.3498 11.0572 22.9148C11.4934 22.4798 11.7115 21.9473 11.7115 21.3172Z" fill="white"/>
</svg>
