<svg width="29" height="30" viewBox="0 0 29 30" fill="none" xmlns="http://www.w3.org/2000/svg">
<path d="M1.83169 18.2105L0 16.8951L6.93746 5.775L11.3509 10.9385L17.2067 1.40482L21.6201 8.03942L26.6682 0L28.471 1.32978L21.6663 12.1672L17.2903 5.5701L11.6624 14.7316L7.22591 9.5451L1.83169 18.2105V18.2105M19.2117 24.7499C20.3385 24.7499 21.2908 24.3609 22.0687 23.5829C22.8466 22.8049 23.2355 21.8525 23.2355 20.7257C23.2355 19.5989 22.8465 18.6465 22.0685 17.8687C21.2905 17.0908 20.3381 16.7018 19.2113 16.7018C18.0845 16.7018 17.1321 17.0908 16.3542 17.8689C15.5763 18.6469 15.1874 19.5993 15.1874 20.7261C15.1874 21.8529 15.5764 22.8052 16.3544 23.5831C17.1325 24.361 18.0849 24.7499 19.2117 24.7499V24.7499M26.9047 29.9999L22.7682 25.8633C22.2624 26.2326 21.7081 26.5143 21.1052 26.7085C20.5023 26.9028 19.8711 26.9999 19.2115 26.9999C17.4687 26.9999 15.9873 26.3902 14.7674 25.1707C13.5474 23.9513 12.9375 22.4705 12.9375 20.7284C12.9375 18.9864 13.5472 17.5048 14.7666 16.2836C15.9861 15.0625 17.4668 14.4519 19.2089 14.4519C20.951 14.4519 22.4326 15.0619 23.6537 16.2818C24.8749 17.5017 25.4855 18.9831 25.4855 20.7259C25.4855 21.3855 25.3884 22.0192 25.1941 22.6268C24.9999 23.2345 24.7182 23.7913 24.3489 24.297L28.471 28.4336L26.9047 29.9999V29.9999" fill="#50604D"/>
</svg>
