<svg width="36" height="34" viewBox="0 0 36 34" fill="none" xmlns="http://www.w3.org/2000/svg">
<path d="M8.62497 33.7499C7.48075 33.7499 6.5072 33.3485 5.70432 32.5456C4.90144 31.7427 4.5 30.7692 4.5 29.625C4.5 28.4808 4.90144 27.5072 5.70432 26.7043C6.5072 25.9014 7.48075 25.5 8.62497 25.5C8.94612 25.5 9.26151 25.5399 9.57112 25.6197C9.88074 25.6995 10.173 25.8067 10.448 25.9413L13.4221 22.2403C12.7991 21.5615 12.3693 20.8019 12.1327 19.9615C11.8962 19.1211 11.8481 18.2759 11.9885 17.4259L7.66726 15.9951C7.29034 16.6009 6.79371 17.0865 6.17737 17.4519C5.56102 17.8173 4.87689 17.9999 4.12497 17.9999C2.98075 17.9999 2.0072 17.5985 1.20432 16.7956C0.40144 15.9927 0 15.0192 0 13.875C0 12.7307 0.40144 11.7572 1.20432 10.9543C2.0072 10.1514 2.98075 9.75 4.12497 9.75C5.2692 9.75 6.24275 10.1514 7.04563 10.9543C7.84851 11.7572 8.24994 12.7307 8.24994 13.875C8.24994 13.9634 8.24754 14.0375 8.24273 14.0971C8.23792 14.1567 8.23552 14.2163 8.23552 14.2759L12.5423 15.7731C12.9558 15.0077 13.5236 14.351 14.2457 13.8029C14.9678 13.2548 15.7962 12.9029 16.7308 12.7472V8.14322C15.7654 7.9163 14.9856 7.42832 14.3913 6.67928C13.7971 5.93025 13.5 5.07881 13.5 4.12497C13.5 2.98075 13.9014 2.0072 14.7043 1.20432C15.5072 0.40144 16.4808 0 17.625 0C18.7692 0 19.7427 0.40144 20.5456 1.20432C21.3485 2.0072 21.7499 2.98075 21.7499 4.12497C21.7499 5.07881 21.449 5.93025 20.8471 6.67928C20.2451 7.42832 19.4692 7.9163 18.5192 8.14322V12.7472C19.4538 12.9029 20.2797 13.2548 20.997 13.8029C21.7143 14.351 22.2845 15.0077 22.7076 15.7731L27.0144 14.2759C27.0048 14.2067 27 14.1447 27 14.0899C27 14.0351 27 13.9634 27 13.875C27 12.7307 27.4014 11.7572 28.2043 10.9543C29.0072 10.1514 29.9808 9.75 31.125 9.75C32.2692 9.75 33.2427 10.1514 34.0456 10.9543C34.8485 11.7572 35.2499 12.7307 35.2499 13.875C35.2499 15.0192 34.8485 15.9927 34.0456 16.7956C33.2427 17.5985 32.2692 17.9999 31.125 17.9999C30.3731 17.9999 29.6851 17.8173 29.061 17.4519C28.437 17.0865 27.9442 16.6009 27.5827 15.9951L23.2614 17.4259C23.4018 18.2759 23.3537 19.1173 23.1172 19.95C22.8807 20.7826 22.4509 21.5413 21.8278 22.2259L24.8019 25.9038C25.0769 25.7788 25.3692 25.6803 25.6788 25.6082C25.9884 25.5361 26.3038 25.5 26.625 25.5C27.7692 25.5 28.7427 25.9014 29.5456 26.7043C30.3485 27.5072 30.7499 28.4808 30.7499 29.625C30.7499 30.7692 30.3485 31.7427 29.5456 32.5456C28.7427 33.3485 27.7692 33.7499 26.625 33.7499C25.4808 33.7499 24.5072 33.3485 23.7043 32.5456C22.9014 31.7427 22.5 30.7692 22.5 29.625C22.5 29.1538 22.5764 28.699 22.7293 28.2606C22.8822 27.8221 23.1106 27.4202 23.4144 27.0548L20.4403 23.3249C19.5884 23.8326 18.6485 24.0864 17.6206 24.0864C16.5928 24.0864 15.6481 23.8326 14.7865 23.3249L11.8355 27.0548C12.1298 27.4202 12.3557 27.8221 12.5134 28.2606C12.6711 28.699 12.7499 29.1538 12.7499 29.625C12.7499 30.7692 12.3485 31.7427 11.5456 32.5456C10.7427 33.3485 9.7692 33.7499 8.62497 33.7499V33.7499M4.12497 15.75C4.64613 15.75 5.08893 15.5678 5.45336 15.2034C5.81779 14.8389 6 14.3961 6 13.875C6 13.3538 5.81779 12.911 5.45336 12.5466C5.08893 12.1822 4.64613 11.9999 4.12497 11.9999C3.60381 11.9999 3.16102 12.1822 2.79659 12.5466C2.43216 12.911 2.24995 13.3538 2.24995 13.875C2.24995 14.3961 2.43216 14.8389 2.79659 15.2034C3.16102 15.5678 3.60381 15.75 4.12497 15.75V15.75M8.62497 31.5C9.14613 31.5 9.58893 31.3178 9.95336 30.9534C10.3178 30.5889 10.5 30.1461 10.5 29.625C10.5 29.1038 10.3178 28.661 9.95336 28.2966C9.58893 27.9322 9.14613 27.7499 8.62497 27.7499C8.10381 27.7499 7.66102 27.9322 7.29659 28.2966C6.93216 28.661 6.74995 29.1038 6.74995 29.625C6.74995 30.1461 6.93216 30.5889 7.29659 30.9534C7.66102 31.3178 8.10381 31.5 8.62497 31.5V31.5M17.625 6C18.1461 6 18.5889 5.81779 18.9534 5.45336C19.3178 5.08893 19.5 4.64613 19.5 4.12497C19.5 3.60381 19.3178 3.16102 18.9534 2.79659C18.5889 2.43216 18.1461 2.24995 17.625 2.24995C17.1038 2.24995 16.661 2.43216 16.2966 2.79659C15.9322 3.16102 15.7499 3.60381 15.7499 4.12497C15.7499 4.64613 15.9322 5.08893 16.2966 5.45336C16.661 5.81779 17.1038 6 17.625 6V6M17.625 21.8365C18.5884 21.8365 19.4062 21.5004 20.0783 20.8283C20.7504 20.1562 21.0865 19.3384 21.0865 18.375C21.0865 17.4115 20.7504 16.5937 20.0783 15.9216C19.4062 15.2495 18.5884 14.9135 17.625 14.9135C16.6615 14.9135 15.8437 15.2495 15.1716 15.9216C14.4995 16.5937 14.1635 17.4115 14.1635 18.375C14.1635 19.3384 14.4995 20.1562 15.1716 20.8283C15.8437 21.5004 16.6615 21.8365 17.625 21.8365V21.8365M26.625 31.5C27.1461 31.5 27.5889 31.3178 27.9534 30.9534C28.3178 30.5889 28.5 30.1461 28.5 29.625C28.5 29.1038 28.3178 28.661 27.9534 28.2966C27.5889 27.9322 27.1461 27.7499 26.625 27.7499C26.1038 27.7499 25.661 27.9322 25.2966 28.2966C24.9322 28.661 24.7499 29.1038 24.7499 29.625C24.7499 30.1461 24.9322 30.5889 25.2966 30.9534C25.661 31.3178 26.1038 31.5 26.625 31.5V31.5M31.125 15.75C31.6461 15.75 32.0889 15.5678 32.4534 15.2034C32.8178 14.8389 33 14.3961 33 13.875C33 13.3538 32.8178 12.911 32.4534 12.5466C32.0889 12.1822 31.6461 11.9999 31.125 11.9999C30.6038 11.9999 30.161 12.1822 29.7966 12.5466C29.4322 12.911 29.2499 13.3538 29.2499 13.875C29.2499 14.3961 29.4322 14.8389 29.7966 15.2034C30.161 15.5678 30.6038 15.75 31.125 15.75V15.75M17.625 4.12497V4.12497V4.12497V4.12497V4.12497V4.12497V4.12497V4.12497V4.12497V4.12497M4.12497 13.875V13.875V13.875V13.875V13.875V13.875V13.875V13.875V13.875V13.875M17.625 18.375V18.375V18.375V18.375V18.375V18.375V18.375V18.375V18.375V18.375M31.125 13.875V13.875V13.875V13.875V13.875V13.875V13.875V13.875V13.875V13.875M8.62497 29.625V29.625V29.625V29.625V29.625V29.625V29.625V29.625V29.625V29.625M26.625 29.625V29.625V29.625V29.625V29.625V29.625V29.625V29.625V29.625V29.625" fill="#50604D"/>
</svg>
