<svg width="49" height="51" viewBox="0 0 49 51" fill="none" xmlns="http://www.w3.org/2000/svg">
<rect width="48.9999" height="50.9999" rx="24.5" fill="#C5ECD2"/>
<path d="M22.1 29.7346L23.1538 28.65L21.0038 26.5L23.1538 24.35L22.1 23.2654L18.8654 26.5L22.1 29.7346ZM26.9 29.7346L30.1346 26.5L26.9 23.2654L25.8461 24.35L27.9961 26.5L25.8461 28.65L26.9 29.7346ZM17.8077 34.9999C17.309 34.9999 16.883 34.8233 16.5298 34.4701C16.1766 34.1169 16 33.691 16 33.1922V19.8077C16 19.309 16.1766 18.883 16.5298 18.5298C16.883 18.1766 17.309 18 17.8077 18H22.2577C22.3205 17.4449 22.5628 16.9728 22.9846 16.5837C23.4064 16.1946 23.9115 16 24.5 16C25.0948 16 25.6032 16.1946 26.025 16.5837C26.4467 16.9728 26.6858 17.4449 26.7422 18H31.1922C31.691 18 32.1169 18.1766 32.4701 18.5298C32.8233 18.883 32.9999 19.309 32.9999 19.8077V33.1922C32.9999 33.691 32.8233 34.1169 32.4701 34.4701C32.1169 34.8233 31.691 34.9999 31.1922 34.9999H17.8077ZM17.8077 33.5H31.1922C31.2692 33.5 31.3397 33.4679 31.4038 33.4038C31.4679 33.3397 31.5 33.2692 31.5 33.1922V19.8077C31.5 19.7307 31.4679 19.6602 31.4038 19.5961C31.3397 19.532 31.2692 19.5 31.1922 19.5H17.8077C17.7307 19.5 17.6602 19.532 17.5961 19.5961C17.532 19.6602 17.5 19.7307 17.5 19.8077V33.1922C17.5 33.2692 17.532 33.3397 17.5961 33.4038C17.6602 33.4679 17.7307 33.5 17.8077 33.5ZM24.5 18.8461C24.7166 18.8461 24.8958 18.7753 25.0375 18.6336C25.1791 18.492 25.25 18.3128 25.25 18.0961C25.25 17.8795 25.1791 17.7003 25.0375 17.5586C24.8958 17.417 24.7166 17.3461 24.5 17.3461C24.2833 17.3461 24.1041 17.417 23.9625 17.5586C23.8208 17.7003 23.75 17.8795 23.75 18.0961C23.75 18.3128 23.8208 18.492 23.9625 18.6336C24.1041 18.7753 24.2833 18.8461 24.5 18.8461ZM17.5 33.5C17.5 33.5 17.5 33.4679 17.5 33.4038C17.5 33.3397 17.5 33.2692 17.5 33.1922V19.8077C17.5 19.7307 17.5 19.6602 17.5 19.5961C17.5 19.532 17.5 19.5 17.5 19.5C17.5 19.5 17.5 19.532 17.5 19.5961C17.5 19.6602 17.5 19.7307 17.5 19.8077V33.1922C17.5 33.2692 17.5 33.3397 17.5 33.4038C17.5 33.4679 17.5 33.5 17.5 33.5Z" fill="#496C57"/>
</svg>
