<svg width="53" height="53" viewBox="0 0 53 53" fill="none" xmlns="http://www.w3.org/2000/svg">
<rect width="52.9999" height="52.9999" rx="26.5" fill="#E5E2DD"/>
<path d="M17.9519 36.9999V32.6845C17.3878 32.5102 16.9215 32.1913 16.5529 31.7278C16.1843 31.2644 16 30.7233 16 30.1046V20.5865H17.9519V16.75C17.9519 16.5375 18.0238 16.3594 18.1676 16.2156C18.3114 16.0719 18.4896 16 18.7022 16C18.9148 16 19.0929 16.0719 19.2365 16.2156C19.3801 16.3594 19.4519 16.5375 19.4519 16.75V20.5865H21.4038V30.1046C21.4038 30.7233 21.2195 31.2644 20.8509 31.7278C20.4823 32.1913 20.016 32.5102 19.4519 32.6845V36.9999H17.9519ZM25.75 36.9999V32.6845C25.1859 32.5102 24.7195 32.1913 24.3509 31.7278C23.9824 31.2644 23.7981 30.7233 23.7981 30.1046V20.5865H25.75V16.75C25.75 16.5375 25.8219 16.3594 25.9657 16.2156C26.1095 16.0719 26.2877 16 26.5003 16C26.7129 16 26.891 16.0719 27.0346 16.2156C27.1782 16.3594 27.2499 16.5375 27.2499 16.75V20.5865H29.2019V30.1046C29.2019 30.7233 29.0176 31.2644 28.649 31.7278C28.2804 32.1913 27.814 32.5102 27.2499 32.6845V36.9999H25.75ZM33.548 36.9999V32.6845C32.9839 32.5102 32.5176 32.1913 32.149 31.7278C31.7804 31.2644 31.5961 30.7233 31.5961 30.1046V20.5865H33.548V16.75C33.548 16.5375 33.6199 16.3594 33.7638 16.2156C33.9076 16.0719 34.0858 16 34.2984 16C34.511 16 34.689 16.0719 34.8326 16.2156C34.9762 16.3594 35.048 16.5375 35.048 16.75V20.5865H36.9999V30.1046C36.9999 30.7233 36.8156 31.2644 36.447 31.7278C36.0785 32.1913 35.6121 32.5102 35.048 32.6845V36.9999H33.548ZM17.5 22.0865V26.4327H19.9038V22.0865H17.5ZM25.298 22.0865V26.4327H27.7019V22.0865H25.298ZM33.0961 22.0865V26.4327H35.5V22.0865H33.0961ZM18.7019 31.3076C19.0365 31.3076 19.3205 31.1925 19.5538 30.9621C19.7872 30.7317 19.9038 30.4463 19.9038 30.1057V27.9326H17.5V30.1057C17.5 30.4463 17.6166 30.7317 17.85 30.9621C18.0833 31.1925 18.3673 31.3076 18.7019 31.3076ZM26.5 31.3076C26.8346 31.3076 27.1186 31.1925 27.3519 30.9621C27.5852 30.7317 27.7019 30.4463 27.7019 30.1057V27.9326H25.298V30.1057C25.298 30.4463 25.4147 30.7317 25.648 30.9621C25.8814 31.1925 26.1653 31.3076 26.5 31.3076ZM34.298 31.3076C34.6326 31.3076 34.9166 31.1925 35.15 30.9621C35.3833 30.7317 35.5 30.4463 35.5 30.1057V27.9326H33.0961V30.1057C33.0961 30.4463 33.2128 30.7317 33.4461 30.9621C33.6794 31.1925 33.9634 31.3076 34.298 31.3076Z" fill="#50604D"/>
</svg>
